<?xml version="1.0" encoding="UTF-8"?>
<!DOCTYPE svg PUBLIC "-//W3C//DTD SVG 1.1//EN" "http://www.w3.org/Graphics/SVG/1.1/DTD/svg11.dtd">
<!-- Creator: CorelDRAW X6 -->
<svg xmlns="http://www.w3.org/2000/svg" xml:space="preserve" width="21.969cm" height="21.969cm" version="1.1" style="shape-rendering:geometricPrecision; text-rendering:geometricPrecision; image-rendering:optimizeQuality; fill-rule:evenodd; clip-rule:evenodd"
viewBox="0 0 4506 4506"
 xmlns:xlink="http://www.w3.org/1999/xlink">
 <defs>
  <style type="text/css">
   <![CDATA[
    .fil0 {fill:none}
    .fil1 {fill:#C2C2C2}
    .fil2 {fill:black;fill-rule:nonzero}
   ]]>
  </style>
 </defs>
 <g id="Layer_x0020_2">
  <metadata id="CorelCorpID_0Corel-Layer"/>
  <rect class="fil0" width="4506" height="4506"/>
  <path id="Shape" class="fil1" d="M1038 3618l0 104 221 0 0 -104 -221 0zm1084 -2331l-90 -52 -111 191 91 52 110 -191zm-1526 2434l111 -191 90 52 -21 36 41 0 0 104 -221 -1zm221 -382l110 -191 91 52 -111 191 -90 -52zm221 -383l110 -191 91 52 -111 191 -90 -52zm221 -382l110 -191 90 52 -110 191 -90 -52zm221 -383l110 -191 90 52 -110 191 -90 -52zm220 -382l111 -192 90 53 -110 191 -91 -52zm442 -765l111 -192 110 192 -90 52 -20 -36 -21 36 -90 -52zm1456 2347l91 -52 -111 -191 -90 52 110 191zm-1124 -2156l110 191 -90 52 -110 -191 90 -52zm221 382l110 192 -90 52 -111 -191 91 -53zm221 383l110 191 -90 52 -111 -191 91 -52zm220 383l111 191 -90 52 -111 -191 90 -52zm221 382l111 191 -91 52 -110 -191 90 -52zm442 765l110 191 -221 1 0 -104 41 0 -20 -36 90 -52zm-331 192l-221 0 0 -104 221 0 0 104zm-442 0l-221 0 0 -104 221 0 0 104zm-442 0l-221 0 0 -104 221 0 0 104zm-442 0l-221 0 0 -104 221 0 0 104zm-441 0l-221 0 0 -104 221 0 0 104z"/>
  <path id="ħ" class="fil2" d="M3088 3670c0,231 -93,440 -245,591 -151,151 -360,245 -590,245 -231,0 -440,-94 -591,-245 -151,-151 -245,-360 -245,-591l105 0c0,202 81,385 214,517 132,133 315,214 517,214 202,0 384,-81 517,-214 132,-132 214,-315 214,-517l104 0z"/>
 </g>
</svg>
